<svg xmlns="http://www.w3.org/2000/svg" width="22" height="22" viewBox="0 0 22 22"><path fill="#FFF" d="M7.964 12.823a2.637 2.637 0 0 1-2.634-2.634c0-.35.071-.694.211-1.024a.446.446 0 0 1 .037-.091l1.944-3.671c.173-.327.711-.327.884 0l1.944 3.671a.496.496 0 0 1 .039.096c.14.33.21.672.21 1.019a2.638 2.638 0 0 1-2.635 2.634zM6.492 9.485l-.012.03c-.1.219-.15.446-.15.674 0 .901.733 1.634 1.634 1.634s1.634-.733 1.634-1.634a1.63 1.63 0 0 0-.15-.674l-.014-.033-1.47-2.777-1.472 2.78zM13.964 17.823a2.638 2.638 0 0 1-2.635-2.634c0-.347.07-.689.21-1.021a.553.553 0 0 1 .039-.096l1.944-3.671a.5.5 0 0 1 .883 0l1.943 3.671c.015.029.027.06.036.09.141.331.212.676.212 1.026a2.634 2.634 0 0 1-2.632 2.635zm-1.471-3.342l-.014.032c-.1.221-.15.448-.15.676 0 .901.733 1.634 1.635 1.634.9 0 1.634-.732 1.634-1.634a1.654 1.654 0 0 0-.161-.701l-1.473-2.783-1.471 2.776z"/></svg>