<svg xmlns="http://www.w3.org/2000/svg" width="22" height="22" viewBox="0 0 22 22"><path fill="#FFF" d="M13.997 16.777c.278-.143.544-.306.798-.487.03-.021.058-.044.088-.066a6.51 6.51 0 0 0 1.413-1.427c.176-.244.338-.498.48-.766.017-.032.031-.066.047-.098.127-.25.237-.509.331-.776.016-.046.035-.09.05-.136a6.4 6.4 0 0 0 .218-.878c.011-.063.02-.127.029-.191.046-.311.077-.628.077-.952s-.032-.64-.077-.952l-.031-.191a6.4 6.4 0 0 0-.218-.878c-.015-.046-.034-.09-.05-.136a6.415 6.415 0 0 0-.331-.776c-.016-.033-.03-.067-.047-.099a6.306 6.306 0 0 0-.48-.766l-.094-.125a6.536 6.536 0 0 0-1.319-1.302l-.088-.066a6.344 6.344 0 0 0-.798-.487l-.078-.038a6.456 6.456 0 0 0-.892-.368 6.5 6.5 0 1 0 0 12.366c.309-.1.605-.225.892-.368l.08-.037zm-2.97-.277c-3.033 0-5.5-2.467-5.5-5.5s2.467-5.5 5.5-5.5c.706 0 1.379.139 2 .382v10.236a5.474 5.474 0 0 1-2 .382z"/></svg>