<svg xmlns="http://www.w3.org/2000/svg" width="22" height="22" viewBox="0 0 22 22"><path fill="#FFF" d="M16.515 14.472c.029-.046.056-.092.084-.139.118-.198.227-.401.324-.612.018-.039.039-.077.056-.117.107-.244.199-.495.276-.754.016-.053.027-.107.041-.161.056-.21.102-.423.137-.64.012-.074.024-.148.034-.223.035-.271.058-.546.058-.827s-.024-.556-.058-.827c-.01-.075-.022-.149-.034-.223a6.433 6.433 0 0 0-.137-.64c-.014-.053-.026-.108-.041-.161a6.454 6.454 0 0 0-.276-.754c-.018-.04-.038-.078-.056-.117a6.617 6.617 0 0 0-.324-.612c-.028-.047-.055-.093-.084-.139a6.495 6.495 0 0 0-1.722-1.818l-.028-.021a6.46 6.46 0 0 0-3.738-1.188 6.5 6.5 0 1 0 3 12.263c.257-.134.503-.285.738-.451l.028-.021c.214-.153.417-.319.61-.495l.077-.07a6.495 6.495 0 0 0 1.035-1.253zM11.027 16.5c-3.033 0-5.5-2.467-5.5-5.5s2.467-5.5 5.5-5.5c1.107 0 2.136.331 3 .896v9.208a5.464 5.464 0 0 1-3 .896z"/></svg>