<svg xmlns="http://www.w3.org/2000/svg" width="22" height="22" viewBox="0 0 22 22"><g fill="#FFF"><path d="M19.909 14h-1v-1.508a2.913 2.913 0 0 0-3.33-2.534l-.533.08-.04-.538a4.06 4.06 0 0 0-4.034-3.749 4.064 4.064 0 0 0-4.033 3.73l-.033.414-.413.044a2.88 2.88 0 0 0-1.751.835 2.876 2.876 0 0 0-.835 1.768L3.909 14h-1v-1.508a3.937 3.937 0 0 1 1.125-2.425 3.926 3.926 0 0 1 1.954-1.059c.384-2.417 2.5-4.257 4.983-4.257 2.458 0 4.55 1.795 4.969 4.171 1.097-.034 2.084.388 2.841 1.145a3.917 3.917 0 0 1 1.125 2.375L19.909 14z"/><path d="M4.337 16.91l3.736-4.01.732.682-3.736 4.009zM8.337 16.91l3.736-4.01.732.682L9.07 17.59zM12.337 16.91L16.07 12.9l.733.682-3.733 4.011z"/></g></svg>