<svg xmlns="http://www.w3.org/2000/svg" width="22" height="22" viewBox="0 0 22 22"><path fill="#FFF" d="M18.409 16.5h-14c-.827 0-1.5-.673-1.5-1.5v-1.508a3.937 3.937 0 0 1 1.125-2.425 3.926 3.926 0 0 1 1.954-1.059c.384-2.417 2.5-4.257 4.983-4.257 2.458 0 4.55 1.795 4.969 4.171a3.817 3.817 0 0 1 2.841 1.145 3.914 3.914 0 0 1 1.125 2.375L19.909 15c0 .827-.673 1.5-1.5 1.5zm-7.437-9.749a4.064 4.064 0 0 0-4.033 3.73l-.033.414-.413.044a2.88 2.88 0 0 0-1.751.835 2.876 2.876 0 0 0-.835 1.768L3.909 15a.5.5 0 0 0 .5.5h14c.275 0 .5-.225.5-.5v-1.508a2.897 2.897 0 0 0-.835-1.718 2.91 2.91 0 0 0-2.495-.816l-.533.08-.04-.538a4.06 4.06 0 0 0-4.034-3.749z"/></svg>