<svg xmlns="http://www.w3.org/2000/svg" width="22" height="22" viewBox="0 0 22 22"><path fill="#FFF" d="M7.526 2.463h1V4h-1zM2.051 4.731l.707-.707L3.845 5.11l-.707.708zM.49 9.5h1.537v1H.49z"/><path fill="none" d="M7.988 11.008c.212-1.337.966-2.483 2.008-3.253A2.975 2.975 0 0 0 8.027 7c-1.654 0-3 1.346-3 3 0 .85.359 1.615.929 2.161.028-.03.05-.065.079-.094a3.923 3.923 0 0 1 1.953-1.059z"/><path fill="#FFF" d="M21.906 14.442a3.914 3.914 0 0 0-1.125-2.375 3.82 3.82 0 0 0-2.841-1.145c-.419-2.376-2.511-4.171-4.969-4.171-.739 0-1.437.179-2.075.472A3.975 3.975 0 0 0 8.027 6a4 4 0 0 0-4 4c0 1.188.528 2.243 1.35 2.975a4.015 4.015 0 0 0-.467 1.517V16c0 .827.673 1.5 1.5 1.5h14c.827 0 1.5-.673 1.5-1.5l-.004-1.558zM5.027 10c0-1.654 1.346-3 3-3 .757 0 1.441.291 1.969.755-1.042.77-1.795 1.916-2.008 3.253a3.93 3.93 0 0 0-1.954 1.059c-.029.029-.051.064-.079.094A2.988 2.988 0 0 1 5.027 10zm15.882 6c0 .275-.225.5-.5.5h-14a.5.5 0 0 1-.5-.5l-.002-1.458c.036-.357.136-.694.29-1.004.138-.279.318-.537.545-.763.017-.017.037-.029.054-.046a2.874 2.874 0 0 1 1.697-.79l.413-.044.033-.414c.096-1.222.749-2.277 1.686-2.953.27-.195.555-.367.867-.492.461-.183.96-.285 1.48-.285a4.06 4.06 0 0 1 4.034 3.749l.04.538.533-.08a2.909 2.909 0 0 1 2.495.816c.474.474.771 1.102.835 1.718V16z"/></svg>