<svg xmlns="http://www.w3.org/2000/svg" width="22" height="22" viewBox="0 0 22 22"><path fill="#FFF" d="M11.027 6.293c2.596 0 4.707 2.112 4.707 4.707s-2.112 4.707-4.707 4.707S6.319 13.596 6.319 11s2.112-4.707 4.708-4.707m0-1a5.707 5.707 0 1 0 0 11.414 5.707 5.707 0 0 0 0-11.414zM10.527 2h1v1.537h-1zM10.527 18.463h1V20h-1zM4.309 4.99l.707-.708L6.102 5.37l-.707.707zM15.95 16.63l.707-.706 1.087 1.087-.708.707zM2.027 10.5h1.536v1H2.027zM18.49 10.5h1.537v1H18.49zM4.31 17.01l1.085-1.086.708.707-1.087 1.086zM15.95 5.37l1.087-1.087.707.707-1.086 1.087z"/></svg>