<?xml version="1.0" encoding="utf-8"?>
<!-- Generator: Adobe Illustrator 25.2.0, SVG Export Plug-In . SVG Version: 6.00 Build 0)  -->
<svg version="1.0" id="Layer_1" xmlns="http://www.w3.org/2000/svg" xmlns:xlink="http://www.w3.org/1999/xlink" x="0px" y="0px"
	 viewBox="0 0 22 22" style="enable-background:new 0 0 22 22;" xml:space="preserve">
<style type="text/css">
	.st0{fill:#FFFFFF;}
</style>
<path class="st0" d="M19.9,14.4c-0.1-0.9-0.5-1.7-1.1-2.4c-0.7-0.8-1.8-1.2-2.8-1.1c-0.4-2.4-2.5-4.2-5-4.2c-0.7,0-1.4,0.2-2.1,0.5
	C8.1,6.4,7.1,6,6,6c-2.2,0-4,1.8-4,4c0,1.2,0.5,2.2,1.3,3c-0.3,0.5-0.4,1-0.5,1.5V16c0,0.8,0.7,1.5,1.5,1.5h14
	c0.8,0,1.5-0.7,1.5-1.5L19.9,14.4z M3,10c0-1.7,1.3-3,3-3c0.8,0,1.4,0.3,2,0.8C7,8.5,6.2,9.7,6,11c-0.7,0.2-1.4,0.5-2,1.1
	c0,0-0.1,0.1-0.1,0.1C3.4,11.6,3,10.8,3,10z M18.9,16c0,0.3-0.2,0.5-0.5,0.5h-14c-0.3,0-0.5-0.2-0.5-0.5l0-1.5c0-0.4,0.1-0.7,0.3-1
	c0.1-0.3,0.3-0.5,0.5-0.8c0,0,0,0,0.1,0c0.5-0.4,1.1-0.7,1.7-0.8l0.4,0l0-0.4c0.1-1.2,0.7-2.3,1.7-3C8.9,8.3,9.2,8.2,9.5,8
	c0.5-0.2,1-0.3,1.5-0.3c2.1,0,3.9,1.6,4,3.7l0,0.5l0.5-0.1c1.6-0.2,3.1,0.8,3.3,2.4c0,0,0,0.1,0,0.1V16z"/>
<polygon class="st0" points="19,6.9 18.2,6.9 18.2,6.1 17.7,6.1 17.7,6.9 17,6.9 17,7.4 17.7,7.4 17.7,8.1 18.2,8.1 18.2,7.4 
	19,7.4 "/>
<polygon class="st0" points="9,2.9 8.2,2.9 8.2,2.2 7.8,2.2 7.8,2.9 7,2.9 7,3.4 7.8,3.4 7.8,4.2 8.2,4.2 8.2,3.4 9,3.4 "/>
</svg>
