<svg xmlns="http://www.w3.org/2000/svg" width="22" height="22" viewBox="0 0 22 22"><g fill="#FFF"><path d="M19.909 14h-1v-1.508a2.913 2.913 0 0 0-3.33-2.534l-.533.08-.04-.538a4.06 4.06 0 0 0-4.034-3.749 4.064 4.064 0 0 0-4.033 3.73l-.033.414-.413.044a2.88 2.88 0 0 0-1.751.835 2.876 2.876 0 0 0-.835 1.768L3.909 14h-1v-1.508a3.937 3.937 0 0 1 1.125-2.425 3.926 3.926 0 0 1 1.954-1.059c.384-2.417 2.5-4.257 4.983-4.257 2.458 0 4.55 1.795 4.969 4.171 1.097-.034 2.084.388 2.841 1.145a3.917 3.917 0 0 1 1.125 2.375L19.909 14zM8.408 16.869H7.217l.595-1.031-.693-.4-.596 1.031-.595-1.031-.693.4.595 1.031H4.639v.801H5.83l-.595 1.031.693.401.595-1.032.596 1.032.693-.401-.595-1.031h1.191z"/><path d="M13.408 14.869h-1.191l.595-1.031-.693-.4-.596 1.031-.595-1.031-.693.4.595 1.031H9.639v.801h1.191l-.595 1.031.693.401.595-1.032.596 1.032.693-.401-.595-1.031h1.191zM18.408 16.869h-1.191l.595-1.031-.693-.4-.596 1.031-.595-1.031-.694.4.596 1.031h-1.191v.801h1.191l-.596 1.031.694.401.595-1.032.596 1.032.693-.401-.595-1.031h1.191z"/></g></svg>