<svg xmlns="http://www.w3.org/2000/svg" width="22" height="22" viewBox="0 0 22 22"><path fill="#FFF" d="M11.027 4.5a6.471 6.471 0 0 0-3 .737 6.538 6.538 0 0 0-.767.472 6.622 6.622 0 0 0-.61.495l-.077.07a6.531 6.531 0 0 0-1.035 1.254c-.029.046-.056.092-.084.139a6.474 6.474 0 0 0-.324.611c-.018.04-.039.077-.057.117a6.336 6.336 0 0 0-.275.754c-.016.053-.027.108-.042.161-.056.21-.102.423-.137.64-.012.074-.024.148-.034.223-.035.271-.058.546-.058.827s.024.556.058.827c.01.075.022.149.034.223.035.217.081.431.137.64.014.053.026.108.041.161.077.259.169.51.276.754.018.04.038.078.056.117.097.21.206.414.324.612.028.047.055.093.084.139a6.495 6.495 0 0 0 1.722 1.818l.028.021a6.46 6.46 0 0 0 3.738 1.188c3.59 0 6.5-2.91 6.5-6.5s-2.909-6.5-6.498-6.5zm0 12a5.462 5.462 0 0 1-3-.896V6.396a5.46 5.46 0 0 1 3-.896c3.033 0 5.5 2.467 5.5 5.5s-2.468 5.5-5.5 5.5z"/></svg>