<?xml version="1.0" encoding="utf-8"?>
<!-- Generator: Adobe Illustrator 25.2.0, SVG Export Plug-In . SVG Version: 6.00 Build 0)  -->
<svg version="1.1" id="Layer_1" xmlns="http://www.w3.org/2000/svg" xmlns:xlink="http://www.w3.org/1999/xlink" x="0px" y="0px"
	 viewBox="0 0 22 22" style="enable-background:new 0 0 22 22;" xml:space="preserve">
<style type="text/css">
	.st0{fill:none;stroke:#DF00FF;stroke-miterlimit:10;}
	.st1{fill:#FFFFFF;}
</style>
<g id="Layer_2_1_">
	<path class="st0" d="M5.6,14.8c0.6,0.3,1,1,1,1.7c0,0.7-0.3,1.4-0.7,1.9c-0.2,0.2-0.4,0.4-0.6,0.7c-0.6,0.9-0.4,2,0,2.9"/>
	<path class="st0" d="M16.4,14.8c0.6,0.3,1,1,1,1.7c0,0.7-0.3,1.4-0.7,1.9c-0.2,0.2-0.4,0.4-0.6,0.7c-0.6,0.9-0.4,2,0,2.9"/>
	<path class="st0" d="M10.9,14.8c0.6,0.3,1,1,1,1.7c0,0.7-0.3,1.4-0.7,1.9c-0.2,0.2-0.4,0.4-0.6,0.7c-0.6,0.9-0.4,2,0,2.9"/>
</g>
<g id="Layer_1_1_">
	<path class="st1" d="M19.9,14h-1v-1.5c-0.2-1.6-1.6-2.7-3.2-2.5h-0.1H15V9.5c-0.2-2.1-1.9-3.7-4-3.7S7.1,7.4,7,9.5v0.4H6.6
		c-0.7,0.1-1.3,0.4-1.8,0.8C4.3,11.2,4,11.8,4,12.5V14H3v-1.5c0-0.9,0.4-1.8,1-2.4C4.6,9.5,5.2,9.2,6,9c0.4-2.4,2.5-4.3,5-4.3
		s4.6,1.8,5,4.2c1.1,0,2.1,0.4,2.8,1.1c0.6,0.6,1,1.5,1.1,2.4V14z"/>
	<polygon class="st1" points="8.4,16.9 7.2,16.9 7.8,15.8 7.1,15.4 6.5,16.5 5.9,15.4 5.2,15.8 5.8,16.9 4.6,16.9 4.6,17.7 
		5.8,17.7 5.2,18.7 5.9,19.1 6.5,18.1 7.1,19.1 7.8,18.7 7.2,17.7 8.4,17.7 	"/>
	<polygon class="st1" points="13.4,14.9 12.2,14.9 12.8,13.8 12.1,13.4 11.5,14.5 10.9,13.4 10.2,13.8 10.8,14.9 9.6,14.9 9.6,15.7 
		10.8,15.7 10.2,16.7 10.9,17.1 11.5,16.1 12.1,17.1 12.8,16.7 12.2,15.7 13.4,15.7 	"/>
	<polygon class="st1" points="18.4,16.9 17.2,16.9 17.8,15.8 17.1,15.4 16.5,16.5 15.9,15.4 15.2,15.8 15.8,16.9 14.6,16.9 
		14.6,17.7 15.8,17.7 15.2,18.7 15.9,19.1 16.5,18.1 17.1,19.1 17.8,18.7 17.2,17.7 18.4,17.7 	"/>
</g>
</svg>
