<svg xmlns="http://www.w3.org/2000/svg" width="22" height="22" viewBox="0 0 22 22"><g fill="#FFF"><path d="M2.203 12.736h2.194v1H2.203z"/><path d="M19.875 8.91h-3.541a5.705 5.705 0 0 0-5.307-3.617A5.704 5.704 0 0 0 5.72 8.91H2.203v1h3.223a5.707 5.707 0 0 0 10.609 3.826h3.84v-1h-3.412a5.697 5.697 0 0 0 .164-2.826h3.248v-1zm-8.848 6.797a4.695 4.695 0 0 1-3.815-1.971h7.629a4.693 4.693 0 0 1-3.814 1.971zm4.366-2.971H6.66A4.666 4.666 0 0 1 6.319 11c0-.377.056-.738.14-1.09h5.66v-1H6.831c.773-1.545 2.354-2.617 4.196-2.617A4.712 4.712 0 0 1 15.734 11c0 .614-.126 1.198-.341 1.736z"/></g></svg>