<?xml version="1.0" encoding="utf-8"?>
<!-- Generator: Adobe Illustrator 17.0.0, SVG Export Plug-In . SVG Version: 6.00 Build 0)  -->
<!DOCTYPE svg PUBLIC "-//W3C//DTD SVG 1.0//EN" "http://www.w3.org/TR/2001/REC-SVG-20010904/DTD/svg10.dtd">
<svg version="1.0" id="Layer_1" xmlns="http://www.w3.org/2000/svg" xmlns:xlink="http://www.w3.org/1999/xlink" x="0px" y="0px"
	 width="17px" height="15px" viewBox="0 0 17 15" enable-background="new 0 0 17 15" xml:space="preserve">
<path fill="#FFFFFF" d="M16.788,6.914l-7.645-6.68c-0.356-0.311-0.933-0.311-1.285,0l-7.643,6.68
	c-0.356,0.311-0.261,0.564,0.214,0.564h2.358v6.84C2.788,14.691,3.096,15,3.474,15h2.886v-4.5c0-0.373,0.309-0.682,0.686-0.682H9.96
	c0.38,0,0.686,0.302,0.686,0.682V15h2.886c0.38,0,0.686-0.307,0.686-0.682V7.475h2.358C17.044,7.475,17.139,7.225,16.788,6.914z"/>
<g>
</g>
<g>
</g>
<g>
</g>
<g>
</g>
<g>
</g>
<g>
</g>
</svg>
