<?xml version="1.0" encoding="utf-8"?>
<!-- Generator: Adobe Illustrator 17.0.0, SVG Export Plug-In . SVG Version: 6.00 Build 0)  -->
<!DOCTYPE svg PUBLIC "-//W3C//DTD SVG 1.1//EN" "http://www.w3.org/Graphics/SVG/1.1/DTD/svg11.dtd">
<svg version="1.1" id="Capa_1" xmlns="http://www.w3.org/2000/svg" xmlns:xlink="http://www.w3.org/1999/xlink" x="0px" y="0px"
	 width="23px" height="23px" viewBox="0 0 23 23" enable-background="new 0 0 23 23" xml:space="preserve">
<path fill="#FFFFFF" d="M19.476,8.977l-0.555-1.348c0,0,1.292-2.978,1.178-3.092l-1.711-1.706c-0.118-0.118-3.035,1.242-3.035,1.242
	l-1.345-0.555c0,0-1.188-3.018-1.351-3.018h-2.414c-0.168,0-1.268,3.025-1.268,3.025L7.632,4.082c0,0-2.978-1.293-3.092-1.177
	L2.832,4.613C2.714,4.731,4.073,7.648,4.073,7.648L3.518,8.994c0,0-3.018,1.188-3.018,1.348v2.417c0,0.169,3.026,1.269,3.026,1.269
	l0.555,1.344c0,0-1.292,2.976-1.179,3.09l1.71,1.71c0.116,0.116,3.034-1.244,3.034-1.244l1.346,0.557c0,0,1.188,3.016,1.352,3.016
	h2.414c0.167,0,1.268-3.025,1.268-3.025l1.347-0.557c0,0,2.972,1.293,3.087,1.179l1.71-1.708c0.119-0.12-1.243-3.035-1.243-3.035
	l0.554-1.346c0,0,3.019-1.19,3.019-1.352v-2.415C22.501,10.074,19.476,8.977,19.476,8.977z M15.027,11.499
	c0,1.943-1.583,3.525-3.527,3.525c-1.942,0-3.527-1.582-3.527-3.525S9.558,7.976,11.5,7.976
	C13.446,7.977,15.027,9.556,15.027,11.499z"/>
</svg>
